<svg xmlns="http://www.w3.org/2000/svg" viewBox="0 0 34.92 34.31"><defs><style>.cls-1{fill:none;stroke:#010101;stroke-linecap:round;stroke-linejoin:round;stroke-width:1.5px;}</style></defs><title>Config</title><g id="Layer_2" data-name="Layer 2"><g id="Layer_1-2" data-name="Layer 1"><path class="cls-1" d="M18.15,13.22l-1.81-1.81A8,8,0,0,0,5.7,1.36L9.12,4.78,4.78,9.12,1.36,5.7A8,8,0,0,0,12.42,15.91l1.52,1.52"/><path class="cls-1" d="M20.3,26.3l5.14,4.94a4.71,4.71,0,0,0,6.65,0h0a4.71,4.71,0,0,0,0-6.65L26,18.48"/><path class="cls-1" d="M30.21,12.85l4-7.27-1.05-1,0-.06-1-1-7.27,4-.91,3.41-9.6,9.59-3.74.75L5.27,26.36a4.22,4.22,0,0,0,6,6l5.23-5.23.74-3.74,9.59-9.59Z"/></g></g></svg>