<svg xmlns="http://www.w3.org/2000/svg" viewBox="0 0 35.1 33.95"><defs><style>.cls-1{fill:none;stroke:#010101;stroke-linecap:round;stroke-linejoin:round;stroke-width:1.5px;}</style></defs><title>dealer</title><g id="Layer_2" data-name="Layer 2"><g id="Layer_1-2" data-name="Layer 1"><path class="cls-1" d="M28.8,12.19c0-.09,0-.18,0-.27h0v0a11.15,11.15,0,1,0-22.3,0v0h0V12a11.13,11.13,0,0,0,2.28,6.66c1.86,2.87,4.85,5.8,8.89,9.1C20.84,25,24,22.23,26.16,19.1A11.1,11.1,0,0,0,28.8,12.19Z"/><circle class="cls-1" cx="17.66" cy="10.94" r="5.11"/><polyline class="cls-1" points="25.97 22.59 29.52 22.59 34.35 33.2 0.75 33.2 5.4 22.59 8.83 22.59"/></g></g></svg>