<svg xmlns="http://www.w3.org/2000/svg" viewBox="0 0 33.96 34.09"><defs><style>.cls-1{fill:none;stroke:#010101;stroke-linecap:round;stroke-linejoin:round;stroke-width:1.5px;}</style></defs><title>Ebook</title><g id="Layer_2" data-name="Layer 2"><g id="Layer_1-2" data-name="Layer 1"><path class="cls-1" d="M25.39,31.21v1.42a.71.71,0,0,0,.71.71h3.56a.71.71,0,0,0,.71-.71V29.79"/><path class="cls-1" d="M20.42,30.5H11.89a2.13,2.13,0,0,1-2.13-2.14V26.53a2.41,2.41,0,0,1,.71-1.72h0V24.1l-2.14-.47a.71.71,0,0,1-.71-.71V22a.71.71,0,0,1,.71-.71h2.85c.24,0,2.15,2.13,3.55,2.13H26.1c1.4,0,3.32-2.13,3.56-2.13H32.5a.71.71,0,0,1,.71.71v1a.71.71,0,0,1-.71.71l-2.13.47v.71h0a2.45,2.45,0,0,1,.71,1.72v1.83A2.14,2.14,0,0,1,29,30.5Z"/><path class="cls-1" d="M28.23,22l-.93-2.81a2.14,2.14,0,0,0-2-1.46H15.56a2.14,2.14,0,0,0-2,1.46L12.6,22"/><polyline class="cls-1" points="16.86 28.36 20.42 28.36 23.97 28.36"/><path class="cls-1" d="M15.44,31.21v1.42a.71.71,0,0,1-.71.71H11.18a.71.71,0,0,1-.71-.71V29.79"/><path class="cls-1" d="M28.65,25.08a4.84,4.84,0,0,1-3.14,1.15h-.83"/><path class="cls-1" d="M12.18,25.08a4.86,4.86,0,0,0,3.14,1.15h.83"/><path class="cls-1" d="M6.38,31.06H2.27c-.84,0-1.52-1-1.52-2.24v-27A1.08,1.08,0,0,1,1.83.75H29.36a1.08,1.08,0,0,1,1.08,1.08V16.51"/><rect class="cls-1" x="4.77" y="6.22" width="21.09" height="2.93"/><polyline class="cls-1" points="10.3 16.32 4.77 16.32 4.77 13.39 11.77 13.39"/></g></g></svg>