<svg xmlns="http://www.w3.org/2000/svg" viewBox="0 0 34.87 33.99"><defs><style>.cls-1,.cls-2,.cls-3,.cls-4{fill:none;stroke:#010101;}.cls-1,.cls-2,.cls-4{stroke-miterlimit:10;}.cls-1,.cls-3,.cls-4{stroke-width:1.5px;}.cls-3,.cls-4{stroke-linecap:round;}.cls-3{stroke-linejoin:round;}</style></defs><title>Showroom Visit</title><g id="Layer_2" data-name="Layer 2"><g id="Layer_1-2" data-name="Layer 1"><circle class="cls-1" cx="14.85" cy="13.81" r="1.98"/><rect class="cls-1" x="13.48" y="16.72" width="4.97" height="8.13" rx="2.37" transform="translate(-3.76 3.52) rotate(-11.27)"/><path class="cls-2" d="M23,23.8h2.86a1.3,1.3,0,0,1,1.3,1.3v1.73a1,1,0,0,1-1,1H22.69a1,1,0,0,1-1-1V25.09A1.3,1.3,0,0,1,23,23.8Z" transform="translate(-10.76 20.92) rotate(-38.65)"/><polyline class="cls-3" points="0.75 14.37 17.43 0.75 34.12 14.37"/><polyline class="cls-3" points="10.37 32.86 4.28 32.86 4.28 15.61"/><polyline class="cls-3" points="24.5 32.86 30.59 32.86 30.59 15.61"/><line class="cls-3" x1="30.59" y1="2.22" x2="30.59" y2="6.36"/><polyline class="cls-4" points="15.08 24.78 14.92 29.07 14.64 33.24"/><polyline class="cls-4" points="17.87 24.38 18.48 28.16 21.27 32.5"/><polyline class="cls-4" points="13.67 17.7 11.62 21.34 9.04 24.19"/><line class="cls-4" x1="17.62" y1="17.62" x2="22.4" y2="23.32"/></g></g></svg>